<svg width="24" height="24" viewBox="0 0 24 24" fill="none" xmlns="http://www.w3.org/2000/svg">
<g clip-path="url(#clip0_6_173)">
<path d="M21.98 10.0597C21.4446 10.0597 21.0105 10.4937 21.0105 11.0291V12.0056C21.0091 14.5527 20.0158 16.9468 18.2137 18.7468C16.4129 20.5455 14.0199 21.5358 11.4749 21.5358C11.473 21.5358 11.4712 21.5358 11.4693 21.5358C6.21122 21.5328 1.93594 17.2527 1.93894 11.9946C1.94039 9.44758 2.93367 7.05348 4.73583 5.25339C6.53663 3.4547 8.92964 2.46433 11.4746 2.46433C11.4765 2.46433 11.4784 2.46433 11.4803 2.46433C12.8243 2.46508 14.1282 2.74286 15.3559 3.28984C15.8451 3.50781 16.418 3.28792 16.636 2.79887C16.8539 2.30983 16.6341 1.73673 16.145 1.51877C14.6677 0.8605 13.0987 0.526281 11.4813 0.525391C11.4789 0.525391 11.477 0.525391 11.4746 0.525391C8.41228 0.525391 5.53238 1.71733 3.36553 3.88164C1.197 6.04764 0.00178314 8.92853 1.89023e-06 11.9936C-0.00173248 15.0586 1.19011 17.9408 3.3562 20.1093C5.5223 22.2779 8.40314 23.4731 11.4682 23.4749C11.4705 23.4749 11.4725 23.4749 11.4749 23.4749C14.5372 23.4749 17.4171 22.283 19.584 20.1186C21.7525 17.9526 22.9477 15.0717 22.9495 12.0062V11.0292C22.9495 10.4937 22.5155 10.0597 21.98 10.0597Z" fill="white"/>
<path d="M23.716 1.86595C23.3374 1.48739 22.7236 1.48739 22.345 1.86595L11.4747 12.7362L9.00869 10.2701C8.63012 9.89152 8.01625 9.89152 7.63769 10.2701C7.25908 10.6487 7.25908 11.2626 7.63769 11.6412L10.7893 14.7928C10.9786 14.9821 11.2267 15.0767 11.4748 15.0767C11.7229 15.0767 11.971 14.9821 12.1604 14.7928L23.716 3.237C24.0947 2.85839 24.0947 2.24456 23.716 1.86595Z" fill="white"/>
</g>
<defs>
<clipPath id="clip0_6_173">
<rect width="24" height="24" fill="white"/>
</clipPath>
</defs>
</svg>
