<svg width="42" height="42" viewBox="0 0 42 42" fill="none" xmlns="http://www.w3.org/2000/svg">
<path d="M34.3211 9.4754C33.5514 8.69063 32.6375 8.06809 31.6317 7.64335C30.6259 7.21861 29.5478 7 28.459 7C27.3703 7 26.2922 7.21861 25.2863 7.64335C24.2805 8.06809 23.3667 8.69063 22.597 9.4754L20.9996 11.1033L19.4022 9.4754C17.8475 7.89096 15.7389 7.00082 13.5402 7.00082C11.3415 7.00082 9.23285 7.89096 7.67814 9.4754C6.12343 11.0599 5.25 13.2088 5.25 15.4496C5.25 17.6903 6.12343 19.8393 7.67814 21.4237L12.7755 26.5517L19.5665 33.5278C20.3517 34.3344 21.6475 34.3344 22.4327 33.5278L29.2237 26.5517L34.3211 21.4237C35.0911 20.6393 35.702 19.708 36.1187 18.6829C36.5355 17.6579 36.75 16.5592 36.75 15.4496C36.75 14.34 36.5355 13.2413 36.1187 12.2162C35.702 11.1912 35.0911 10.2598 34.3211 9.4754Z" stroke="white" stroke-linecap="round" stroke-linejoin="round"/>
</svg>
