<svg width="42" height="42" viewBox="0 0 42 42" fill="none" xmlns="http://www.w3.org/2000/svg">
<path d="M21.025 0.90625C9.78671 0.90625 0.681238 10.0117 0.681238 21.25C0.681238 32.4883 9.78671 41.5938 21.025 41.5938C32.2633 41.5938 41.3687 32.4883 41.3687 21.25C41.3687 10.0117 32.2633 0.90625 21.025 0.90625ZM30.9508 14.8516L27.6695 30.6016C27.4234 31.75 26.7672 31.9961 25.7828 31.5039L20.6969 27.7305L18.2359 30.1094C17.9898 30.3555 17.7437 30.6016 17.2516 30.6016L17.5797 25.4336L27.0133 16.9023C27.4234 16.5742 26.9312 16.3281 26.357 16.6562L14.7086 24.0391L9.70468 22.4805C8.63827 22.1523 8.63827 21.332 9.95077 20.8398L29.5562 13.293C30.4586 12.9648 31.2789 13.5391 30.9508 14.8516Z" fill="white"/>
</svg>
