<svg width="46" height="32" viewBox="0 0 46 32" fill="none" xmlns="http://www.w3.org/2000/svg">
<path d="M44.8852 5.50391C44.393 3.53516 42.8344 1.97656 40.9477 1.48438C37.4203 0.5 23.475 0.5 23.475 0.5C23.475 0.5 9.44766 0.5 5.92031 1.48438C4.03359 1.97656 2.475 3.53516 1.98281 5.50391C0.998438 8.94922 0.998438 16.332 0.998438 16.332C0.998438 16.332 0.998438 23.6328 1.98281 27.1602C2.475 29.1289 4.03359 30.6055 5.92031 31.0977C9.44766 32 23.475 32 23.475 32C23.475 32 37.4203 32 40.9477 31.0977C42.8344 30.6055 44.393 29.1289 44.8852 27.1602C45.8695 23.6328 45.8695 16.332 45.8695 16.332C45.8695 16.332 45.8695 8.94922 44.8852 5.50391ZM18.8813 22.9766V9.6875L30.5297 16.332L18.8813 22.9766Z" fill="white"/>
</svg>
