<svg width="38" height="38" viewBox="0 0 38 38" fill="none" xmlns="http://www.w3.org/2000/svg">
<path d="M19.275 9.81641C14.025 9.81641 9.84141 14.082 9.84141 19.25C9.84141 24.5 14.025 28.6836 19.275 28.6836C24.443 28.6836 28.7086 24.5 28.7086 19.25C28.7086 14.082 24.443 9.81641 19.275 9.81641ZM19.275 25.4023C15.9117 25.4023 13.1227 22.6953 13.1227 19.25C13.1227 15.8867 15.8297 13.1797 19.275 13.1797C22.6383 13.1797 25.3453 15.8867 25.3453 19.25C25.3453 22.6953 22.6383 25.4023 19.275 25.4023ZM31.2516 9.48828C31.2516 8.25781 30.2672 7.27344 29.0367 7.27344C27.8063 7.27344 26.8219 8.25781 26.8219 9.48828C26.8219 10.7188 27.8063 11.7031 29.0367 11.7031C30.2672 11.7031 31.2516 10.7188 31.2516 9.48828ZM37.4859 11.7031C37.3219 8.75 36.6656 6.125 34.5328 3.99219C32.4 1.85938 29.775 1.20312 26.8219 1.03906C23.7867 0.875 14.6813 0.875 11.6461 1.03906C8.69297 1.20312 6.15 1.85938 3.93516 3.99219C1.80235 6.125 1.1461 8.75 0.982035 11.7031C0.817972 14.7383 0.817972 23.8438 0.982035 26.8789C1.1461 29.832 1.80235 32.375 3.93516 34.5898C6.15 36.7227 8.69297 37.3789 11.6461 37.543C14.6813 37.707 23.7867 37.707 26.8219 37.543C29.775 37.3789 32.4 36.7227 34.5328 34.5898C36.6656 32.375 37.3219 29.832 37.4859 26.8789C37.65 23.8438 37.65 14.7383 37.4859 11.7031ZM33.5484 30.0781C32.9742 31.7188 31.6617 32.9492 30.1031 33.6055C27.6422 34.5898 21.9 34.3438 19.275 34.3438C16.568 34.3438 10.8258 34.5898 8.44688 33.6055C6.80625 32.9492 5.57578 31.7188 4.91953 30.0781C3.93516 27.6992 4.18125 21.957 4.18125 19.25C4.18125 16.625 3.93516 10.8828 4.91953 8.42188C5.57578 6.86328 6.80625 5.63281 8.44688 4.97656C10.8258 3.99219 16.568 4.23828 19.275 4.23828C21.9 4.23828 27.6422 3.99219 30.1031 4.97656C31.6617 5.55078 32.8922 6.86328 33.5484 8.42188C34.5328 10.8828 34.2867 16.625 34.2867 19.25C34.2867 21.957 34.5328 27.6992 33.5484 30.0781Z" fill="white"/>
</svg>
