<svg width="38" height="38" viewBox="0 0 38 38" fill="none" xmlns="http://www.w3.org/2000/svg">
<path d="M31.7406 6.28906C28.3773 2.84375 23.7836 0.875 18.8617 0.875C8.85391 0.875 0.650782 9.07812 0.650782 19.0859C0.650782 22.3672 1.55313 25.4844 3.11172 28.1914L0.56875 37.625L10.1664 35.1641C12.8734 36.5586 15.8266 37.3789 18.8617 37.3789C28.9516 37.3789 37.3188 29.1758 37.3188 19.168C37.3188 14.2461 35.1859 9.73438 31.7406 6.28906ZM18.8617 34.2617C16.1547 34.2617 13.5297 33.5234 11.1508 32.1289L10.6586 31.8008L4.91641 33.3594L6.475 27.7812L6.06484 27.207C4.58828 24.7461 3.76797 21.957 3.76797 19.0859C3.76797 10.8008 10.5766 3.99219 18.9438 3.99219C22.9633 3.99219 26.7367 5.55078 29.6078 8.42188C32.4789 11.293 34.2016 15.0664 34.2016 19.168C34.2016 27.4531 27.2289 34.2617 18.8617 34.2617ZM27.2289 22.9414C26.7367 22.6953 24.5219 21.6289 24.1117 21.4648C23.7016 21.3008 23.3734 21.2188 23.0453 21.7109C22.7992 22.1211 21.8969 23.1875 21.6508 23.5156C21.3227 23.7617 21.0766 23.8438 20.6664 23.5977C17.9594 22.2852 16.2367 21.2188 14.432 18.1836C13.9398 17.3633 14.9242 17.4453 15.7445 15.7227C15.9086 15.3945 15.8266 15.1484 15.7445 14.9023C15.6625 14.6562 14.6781 12.4414 14.35 11.5391C13.9398 10.6367 13.6117 10.7188 13.2836 10.7188C13.0375 10.7188 12.7094 10.7188 12.4633 10.7188C12.1352 10.7188 11.643 10.8008 11.2328 11.293C10.8227 11.7852 9.67422 12.8516 9.67422 15.0664C9.67422 17.3633 11.2328 19.4961 11.4789 19.8242C11.725 20.0703 14.6781 24.6641 19.2719 26.6328C22.143 27.9453 23.2914 28.0273 24.768 27.7812C25.5883 27.6992 27.393 26.7148 27.8031 25.6484C28.2133 24.582 28.2133 23.6797 28.0492 23.5156C27.9672 23.2695 27.6391 23.1875 27.2289 22.9414Z" fill="white"/>
</svg>
